<?xml version="1.0" encoding="iso-8859-1"?>
<!-- Generator: Adobe Illustrator 19.0.0, SVG Export Plug-In . SVG Version: 6.00 Build 0)  -->
<svg version="1.1" id="Layer_1" xmlns="http://www.w3.org/2000/svg" xmlns:xlink="http://www.w3.org/1999/xlink" x="0px" y="0px"
  viewBox="0 0 512.011 512.011" style="enable-background:new 0 0 512.011 512.011;" xml:space="preserve"
>
<g class="layer">
  <title>Layer 1</title>
  <path d="m506.755,46.592c-8.341,-8.341 -21.824,-8.341 -30.165,0l-219.585,219.584l-219.584,-219.584c-8.341,-8.341 -21.824,-8.341 -30.165,0s-8.341,21.824 0,30.165l234.667,234.667c4.16,4.16 9.621,6.251 15.083,6.251c5.462,0 10.923,-2.091 15.083,-6.251l234.667,-234.667c8.34,-8.341 8.34,-21.824 -0.001,-30.165z" fill="black" id="svg_1"/>
  <path d="m505.755,209.592c-8.341,-8.341 -21.824,-8.341 -30.165,0l-219.585,219.584l-219.584,-219.584c-8.341,-8.341 -21.824,-8.341 -30.165,0s-8.341,21.824 0,30.165l234.667,234.667c4.16,4.16 9.621,6.251 15.083,6.251c5.462,0 10.923,-2.091 15.083,-6.251l234.667,-234.667c8.34,-8.341 8.34,-21.824 -0.001,-30.165z" fill="black" id="svg_2"/>
 </g>
</svg>